STARTFONT 2.1
COMMENT WenQuanYi Bitmap Song 16px subset for HK64S825 OLED assets.
COMMENT Upstream: https://github.com/larryli/u8g2_wqy
COMMENT Upstream file: bdf/wenquanyi_12pt.bdf
COMMENT Upstream SHA256: b4bc0413cee9fb865b6f4bbd0a8e3923c057f0a55e414c7c5ccc0a62a4247a28
COMMENT License: GPL v2 with font embedding exception. See NOTICE-wenquanyi-bitmap-song.txt.
FONT -wenquanyi-wenquanyi-bitmap-song-medium-r-normal--16-160-75-75-P-80-iso10646-1
SIZE 16 75 75
FONTBOUNDINGBOX 16 19 0 -4
STARTPROPERTIES 3
FONT_ASCENT 14
FONT_DESCENT 4
PIXEL_SIZE 16
ENDPROPERTIES
CHARS 98
STARTCHAR U_0020
ENCODING 32
SWIDTH 500 0
DWIDTH 8 0
BBX 1 1 0 0
BITMAP
00
ENDCHAR
STARTCHAR U_0021
ENCODING 33
SWIDTH 500 0
DWIDTH 8 0
BBX 1 14 3 -1
BITMAP
80
80
80
80
80
80
80
80
80
80
00
00
80
80
ENDCHAR
STARTCHAR U_0022
ENCODING 34
SWIDTH 500 0
DWIDTH 8 0
BBX 4 6 2 5
BITMAP
90
90
90
90
90
90
ENDCHAR
STARTCHAR U_0023
ENCODING 35
SWIDTH 500 0
DWIDTH 8 0
BBX 8 12 0 0
BITMAP
12
12
12
7F
24
24
24
24
FE
48
48
48
ENDCHAR
STARTCHAR U_0024
ENCODING 36
SWIDTH 500 0
DWIDTH 8 0
BBX 7 13 0 -1
BITMAP
10
7C
92
92
90
50
38
14
12
92
92
7C
10
ENDCHAR
STARTCHAR U_0025
ENCODING 37
SWIDTH 500 0
DWIDTH 8 0
BBX 8 13 0 -1
BITMAP
62
92
94
94
68
08
10
10
26
29
49
49
86
ENDCHAR
STARTCHAR U_0026
ENCODING 38
SWIDTH 625 0
DWIDTH 10 0
BBX 9 12 0 0
BITMAP
3800
4400
4400
4400
2800
1080
2900
4500
8200
8200
4500
3880
ENDCHAR
STARTCHAR U_0027
ENCODING 39
SWIDTH 500 0
DWIDTH 8 0
BBX 2 3 3 10
BITMAP
C0
40
80
ENDCHAR
STARTCHAR U_0028
ENCODING 40
SWIDTH 375 0
DWIDTH 6 0
BBX 4 16 1 -4
BITMAP
10
20
40
40
80
80
80
80
80
80
80
80
40
40
20
10
ENDCHAR
STARTCHAR U_0029
ENCODING 41
SWIDTH 375 0
DWIDTH 6 0
BBX 4 16 1 -4
BITMAP
80
40
20
20
10
10
10
10
10
10
10
10
20
20
40
80
ENDCHAR
STARTCHAR U_002A
ENCODING 42
SWIDTH 500 0
DWIDTH 8 0
BBX 7 9 0 2
BITMAP
10
10
92
54
38
54
92
10
10
ENDCHAR
STARTCHAR U_002B
ENCODING 43
SWIDTH 812 0
DWIDTH 13 0
BBX 11 11 1 0
BITMAP
0400
0400
0400
0400
0400
FFE0
0400
0400
0400
0400
0400
ENDCHAR
STARTCHAR U_002C
ENCODING 44
SWIDTH 500 0
DWIDTH 8 0
BBX 2 4 2 -2
BITMAP
C0
C0
40
80
ENDCHAR
STARTCHAR U_002D
ENCODING 45
SWIDTH 312 0
DWIDTH 5 0
BBX 4 1 0 3
BITMAP
F0
ENDCHAR
STARTCHAR U_002E
ENCODING 46
SWIDTH 500 0
DWIDTH 8 0
BBX 2 2 2 -1
BITMAP
C0
C0
ENDCHAR
STARTCHAR U_002F
ENCODING 47
SWIDTH 500 0
DWIDTH 8 0
BBX 6 16 1 -4
BITMAP
04
04
08
08
08
10
10
10
20
20
20
40
40
40
80
80
ENDCHAR
STARTCHAR U_0030
ENCODING 48
SWIDTH 500 0
DWIDTH 8 0
BBX 7 11 1 0
BITMAP
38
44
82
82
82
82
82
82
82
44
38
ENDCHAR
STARTCHAR U_0031
ENCODING 49
SWIDTH 500 0
DWIDTH 8 0
BBX 5 11 3 0
BITMAP
20
E0
20
20
20
20
20
20
20
20
F8
ENDCHAR
STARTCHAR U_0032
ENCODING 50
SWIDTH 500 0
DWIDTH 8 0
BBX 7 11 1 0
BITMAP
38
44
82
02
04
08
10
20
40
80
FE
ENDCHAR
STARTCHAR U_0033
ENCODING 51
SWIDTH 500 0
DWIDTH 8 0
BBX 7 11 1 0
BITMAP
78
84
02
02
04
38
04
02
02
84
78
ENDCHAR
STARTCHAR U_0034
ENCODING 52
SWIDTH 562 0
DWIDTH 9 0
BBX 8 11 1 0
BITMAP
04
0C
14
24
44
44
84
FF
04
04
04
ENDCHAR
STARTCHAR U_0035
ENCODING 53
SWIDTH 500 0
DWIDTH 8 0
BBX 7 11 1 0
BITMAP
FE
80
80
80
F8
04
02
02
02
84
78
ENDCHAR
STARTCHAR U_0036
ENCODING 54
SWIDTH 500 0
DWIDTH 8 0
BBX 7 11 1 0
BITMAP
3C
40
80
80
B8
C4
82
82
82
44
38
ENDCHAR
STARTCHAR U_0037
ENCODING 55
SWIDTH 500 0
DWIDTH 8 0
BBX 7 11 1 0
BITMAP
FE
02
04
04
04
08
08
08
10
10
10
ENDCHAR
STARTCHAR U_0038
ENCODING 56
SWIDTH 500 0
DWIDTH 8 0
BBX 7 11 1 0
BITMAP
38
44
82
82
44
38
44
82
82
44
38
ENDCHAR
STARTCHAR U_0039
ENCODING 57
SWIDTH 500 0
DWIDTH 8 0
BBX 7 11 1 0
BITMAP
38
44
82
82
82
46
3A
02
02
04
78
ENDCHAR
STARTCHAR U_003A
ENCODING 58
SWIDTH 250 0
DWIDTH 4 0
BBX 1 7 2 0
BITMAP
80
00
00
00
00
00
80
ENDCHAR
STARTCHAR U_003B
ENCODING 59
SWIDTH 250 0
DWIDTH 4 0
BBX 1 8 2 -1
BITMAP
80
00
00
00
00
00
80
80
ENDCHAR
STARTCHAR U_003C
ENCODING 60
SWIDTH 750 0
DWIDTH 12 0
BBX 9 10 2 -1
BITMAP
0080
0300
0C00
3000
C000
C000
3000
0800
0600
0180
ENDCHAR
STARTCHAR U_003D
ENCODING 61
SWIDTH 750 0
DWIDTH 12 0
BBX 10 4 1 2
BITMAP
FFC0
0000
0000
FFC0
ENDCHAR
STARTCHAR U_003E
ENCODING 62
SWIDTH 750 0
DWIDTH 12 0
BBX 10 10 1 -1
BITMAP
8000
6000
1800
0600
0180
00C0
0300
0C00
3000
C000
ENDCHAR
STARTCHAR U_003F
ENCODING 63
SWIDTH 500 0
DWIDTH 8 0
BBX 6 12 1 0
BITMAP
30
48
84
84
08
10
10
10
00
00
10
10
ENDCHAR
STARTCHAR U_0040
ENCODING 64
SWIDTH 562 0
DWIDTH 9 0
BBX 8 9 0 1
BITMAP
3C
42
B9
85
BD
A5
BD
42
3C
ENDCHAR
STARTCHAR U_0041
ENCODING 65
SWIDTH 625 0
DWIDTH 10 0
BBX 9 11 0 0
BITMAP
0800
0800
1400
1400
2200
2200
7F00
4100
4100
8080
8080
ENDCHAR
STARTCHAR U_0042
ENCODING 66
SWIDTH 500 0
DWIDTH 8 0
BBX 7 11 0 0
BITMAP
FC
82
82
82
84
F8
84
82
82
82
FC
ENDCHAR
STARTCHAR U_0043
ENCODING 67
SWIDTH 562 0
DWIDTH 9 0
BBX 8 11 0 0
BITMAP
3E
41
40
80
80
80
80
80
40
41
3E
ENDCHAR
STARTCHAR U_0044
ENCODING 68
SWIDTH 562 0
DWIDTH 9 0
BBX 8 11 0 0
BITMAP
FC
82
82
81
81
81
81
81
82
82
FC
ENDCHAR
STARTCHAR U_0045
ENCODING 69
SWIDTH 500 0
DWIDTH 8 0
BBX 7 11 0 0
BITMAP
FE
80
80
80
80
FC
80
80
80
80
FE
ENDCHAR
STARTCHAR U_0046
ENCODING 70
SWIDTH 500 0
DWIDTH 8 0
BBX 7 11 0 0
BITMAP
FE
80
80
80
80
FC
80
80
80
80
80
ENDCHAR
STARTCHAR U_0047
ENCODING 71
SWIDTH 625 0
DWIDTH 10 0
BBX 9 11 0 0
BITMAP
3F00
4080
4000
8000
8000
8780
8080
8080
4080
4080
3F00
ENDCHAR
STARTCHAR U_0048
ENCODING 72
SWIDTH 562 0
DWIDTH 9 0
BBX 8 11 0 0
BITMAP
81
81
81
81
81
FF
81
81
81
81
81
ENDCHAR
STARTCHAR U_0049
ENCODING 73
SWIDTH 250 0
DWIDTH 4 0
BBX 3 11 0 0
BITMAP
E0
40
40
40
40
40
40
40
40
40
E0
ENDCHAR
STARTCHAR U_004A
ENCODING 74
SWIDTH 187 0
DWIDTH 3 0
BBX 4 14 -2 -3
BITMAP
30
10
10
10
10
10
10
10
10
10
10
10
10
E0
ENDCHAR
STARTCHAR U_004B
ENCODING 75
SWIDTH 500 0
DWIDTH 8 0
BBX 7 11 0 0
BITMAP
82
84
88
90
A0
C0
A0
90
88
84
82
ENDCHAR
STARTCHAR U_004C
ENCODING 76
SWIDTH 500 0
DWIDTH 8 0
BBX 7 11 0 0
BITMAP
80
80
80
80
80
80
80
80
80
80
FE
ENDCHAR
STARTCHAR U_004D
ENCODING 77
SWIDTH 750 0
DWIDTH 12 0
BBX 11 11 0 0
BITMAP
C060
C060
A0A0
A0A0
9120
9120
8A20
8A20
8420
8420
8020
ENDCHAR
STARTCHAR U_004E
ENCODING 78
SWIDTH 562 0
DWIDTH 9 0
BBX 8 11 0 0
BITMAP
81
81
C1
A1
91
89
85
83
81
81
81
ENDCHAR
STARTCHAR U_004F
ENCODING 79
SWIDTH 687 0
DWIDTH 11 0
BBX 10 11 0 0
BITMAP
3F00
4080
4080
8040
8040
8040
8040
8040
4080
4080
3F00
ENDCHAR
STARTCHAR U_0050
ENCODING 80
SWIDTH 500 0
DWIDTH 8 0
BBX 7 11 0 0
BITMAP
FC
82
82
82
82
82
FC
80
80
80
80
ENDCHAR
STARTCHAR U_0051
ENCODING 81
SWIDTH 625 0
DWIDTH 10 0
BBX 9 13 0 -2
BITMAP
3E00
4100
4100
8080
8080
8080
8080
8080
4900
4500
3E00
0200
0100
ENDCHAR
STARTCHAR U_0052
ENCODING 82
SWIDTH 500 0
DWIDTH 8 0
BBX 7 11 0 0
BITMAP
FC
82
82
82
84
F8
84
84
82
82
82
ENDCHAR
STARTCHAR U_0053
ENCODING 83
SWIDTH 500 0
DWIDTH 8 0
BBX 7 11 0 0
BITMAP
3C
42
80
80
40
38
04
02
02
04
F8
ENDCHAR
STARTCHAR U_0054
ENCODING 84
SWIDTH 625 0
DWIDTH 10 0
BBX 9 11 0 0
BITMAP
FF80
0800
0800
0800
0800
0800
0800
0800
0800
0800
0800
ENDCHAR
STARTCHAR U_0055
ENCODING 85
SWIDTH 562 0
DWIDTH 9 0
BBX 8 11 0 0
BITMAP
81
81
81
81
81
81
81
81
81
42
3C
ENDCHAR
STARTCHAR U_0056
ENCODING 86
SWIDTH 625 0
DWIDTH 10 0
BBX 9 11 0 0
BITMAP
8080
8080
4100
4100
4100
2200
2200
1400
1400
0800
0800
ENDCHAR
STARTCHAR U_0057
ENCODING 87
SWIDTH 875 0
DWIDTH 14 0
BBX 13 11 0 0
BITMAP
8208
8208
8208
4510
4510
4510
28A0
28A0
28A0
1040
1040
ENDCHAR
STARTCHAR U_0058
ENCODING 88
SWIDTH 625 0
DWIDTH 10 0
BBX 9 11 0 0
BITMAP
8080
4100
2200
1400
0800
0800
1400
1400
2200
4100
8080
ENDCHAR
STARTCHAR U_0059
ENCODING 89
SWIDTH 500 0
DWIDTH 8 0
BBX 7 11 0 0
BITMAP
82
82
44
44
28
28
10
10
10
10
10
ENDCHAR
STARTCHAR U_005A
ENCODING 90
SWIDTH 562 0
DWIDTH 9 0
BBX 8 11 0 0
BITMAP
FF
01
02
02
04
04
08
10
20
40
FF
ENDCHAR
STARTCHAR U_005B
ENCODING 91
SWIDTH 500 0
DWIDTH 8 0
BBX 4 14 2 -1
BITMAP
F0
80
80
80
80
80
80
80
80
80
80
80
80
F0
ENDCHAR
STARTCHAR U_005C
ENCODING 92
SWIDTH 500 0
DWIDTH 8 0
BBX 7 14 0 -1
BITMAP
80
80
40
40
20
20
10
10
08
08
04
04
02
02
ENDCHAR
STARTCHAR U_005D
ENCODING 93
SWIDTH 312 0
DWIDTH 5 0
BBX 3 16 0 -4
BITMAP
E0
20
20
20
20
20
20
20
20
20
20
20
20
20
20
E0
ENDCHAR
STARTCHAR U_005E
ENCODING 94
SWIDTH 625 0
DWIDTH 10 0
BBX 5 3 2 7
BITMAP
20
50
88
ENDCHAR
STARTCHAR U_005F
ENCODING 95
SWIDTH 750 0
DWIDTH 12 0
BBX 10 1 1 -4
BITMAP
FFC0
ENDCHAR
STARTCHAR U_0060
ENCODING 96
SWIDTH 500 0
DWIDTH 8 0
BBX 2 2 3 8
BITMAP
80
40
ENDCHAR
STARTCHAR U_0061
ENCODING 97
SWIDTH 500 0
DWIDTH 8 0
BBX 7 8 0 0
BITMAP
78
84
04
7C
84
84
8C
72
ENDCHAR
STARTCHAR U_0062
ENCODING 98
SWIDTH 500 0
DWIDTH 8 0
BBX 7 11 0 0
BITMAP
80
80
80
B8
C4
82
82
82
82
C4
B8
ENDCHAR
STARTCHAR U_0063
ENCODING 99
SWIDTH 437 0
DWIDTH 7 0
BBX 6 8 0 0
BITMAP
38
44
80
80
80
80
44
38
ENDCHAR
STARTCHAR U_0064
ENCODING 100
SWIDTH 500 0
DWIDTH 8 0
BBX 7 11 0 0
BITMAP
02
02
02
3A
46
82
82
82
82
46
3A
ENDCHAR
STARTCHAR U_0065
ENCODING 101
SWIDTH 500 0
DWIDTH 8 0
BBX 7 8 0 0
BITMAP
38
44
82
FE
80
80
42
3C
ENDCHAR
STARTCHAR U_0066
ENCODING 102
SWIDTH 312 0
DWIDTH 5 0
BBX 4 11 0 0
BITMAP
30
40
40
F0
40
40
40
40
40
40
40
ENDCHAR
STARTCHAR U_0067
ENCODING 103
SWIDTH 500 0
DWIDTH 8 0
BBX 7 11 0 -3
BITMAP
3A
46
82
82
82
82
46
3A
02
44
38
ENDCHAR
STARTCHAR U_0068
ENCODING 104
SWIDTH 500 0
DWIDTH 8 0
BBX 7 11 0 0
BITMAP
80
80
80
B8
C4
82
82
82
82
82
82
ENDCHAR
STARTCHAR U_0069
ENCODING 105
SWIDTH 250 0
DWIDTH 4 0
BBX 2 11 0 0
BITMAP
40
40
00
C0
40
40
40
40
40
40
40
ENDCHAR
STARTCHAR U_006A
ENCODING 106
SWIDTH 187 0
DWIDTH 3 0
BBX 3 14 -1 -3
BITMAP
20
20
00
60
20
20
20
20
20
20
20
20
20
C0
ENDCHAR
STARTCHAR U_006B
ENCODING 107
SWIDTH 500 0
DWIDTH 8 0
BBX 7 11 0 0
BITMAP
80
80
80
84
88
90
E0
90
88
84
82
ENDCHAR
STARTCHAR U_006C
ENCODING 108
SWIDTH 250 0
DWIDTH 4 0
BBX 1 11 1 0
BITMAP
80
80
80
80
80
80
80
80
80
80
80
ENDCHAR
STARTCHAR U_006D
ENCODING 109
SWIDTH 750 0
DWIDTH 12 0
BBX 11 8 0 0
BITMAP
B9C0
C620
8420
8420
8420
8420
8420
8420
ENDCHAR
STARTCHAR U_006E
ENCODING 110
SWIDTH 437 0
DWIDTH 7 0
BBX 6 8 0 0
BITMAP
B8
C4
84
84
84
84
84
84
ENDCHAR
STARTCHAR U_006F
ENCODING 111
SWIDTH 500 0
DWIDTH 8 0
BBX 7 8 0 0
BITMAP
38
44
82
82
82
82
44
38
ENDCHAR
STARTCHAR U_0070
ENCODING 112
SWIDTH 562 0
DWIDTH 9 0
BBX 8 11 0 -3
BITMAP
DC
62
41
41
41
41
62
5C
40
40
40
ENDCHAR
STARTCHAR U_0071
ENCODING 113
SWIDTH 562 0
DWIDTH 9 0
BBX 8 11 0 -3
BITMAP
3B
46
82
82
82
82
46
3A
02
02
02
ENDCHAR
STARTCHAR U_0072
ENCODING 114
SWIDTH 375 0
DWIDTH 6 0
BBX 5 8 0 0
BITMAP
B8
C0
80
80
80
80
80
80
ENDCHAR
STARTCHAR U_0073
ENCODING 115
SWIDTH 437 0
DWIDTH 7 0
BBX 6 8 0 0
BITMAP
78
84
80
60
18
04
84
78
ENDCHAR
STARTCHAR U_0074
ENCODING 116
SWIDTH 375 0
DWIDTH 6 0
BBX 5 10 0 0
BITMAP
40
40
F8
40
40
40
40
40
40
38
ENDCHAR
STARTCHAR U_0075
ENCODING 117
SWIDTH 500 0
DWIDTH 8 0
BBX 7 8 0 0
BITMAP
C2
42
42
42
42
42
46
3A
ENDCHAR
STARTCHAR U_0076
ENCODING 118
SWIDTH 500 0
DWIDTH 8 0
BBX 7 8 0 0
BITMAP
82
82
44
44
44
28
28
10
ENDCHAR
STARTCHAR U_0077
ENCODING 119
SWIDTH 750 0
DWIDTH 12 0
BBX 11 8 0 0
BITMAP
8420
8420
8A20
4A40
5140
5140
2080
2080
ENDCHAR
STARTCHAR U_0078
ENCODING 120
SWIDTH 500 0
DWIDTH 8 0
BBX 7 8 0 0
BITMAP
82
44
28
10
10
28
44
82
ENDCHAR
STARTCHAR U_0079
ENCODING 121
SWIDTH 500 0
DWIDTH 8 0
BBX 7 11 0 -3
BITMAP
82
82
44
44
28
28
10
10
20
20
C0
ENDCHAR
STARTCHAR U_007A
ENCODING 122
SWIDTH 437 0
DWIDTH 7 0
BBX 6 8 0 0
BITMAP
FC
04
08
10
20
40
80
FC
ENDCHAR
STARTCHAR U_007B
ENCODING 123
SWIDTH 500 0
DWIDTH 8 0
BBX 6 16 1 -4
BITMAP
1C
20
20
20
20
20
20
60
80
60
20
20
20
20
20
1C
ENDCHAR
STARTCHAR U_007C
ENCODING 124
SWIDTH 250 0
DWIDTH 4 0
BBX 1 16 2 -4
BITMAP
80
80
80
80
80
80
80
80
80
80
80
80
80
80
80
80
ENDCHAR
STARTCHAR U_007D
ENCODING 125
SWIDTH 500 0
DWIDTH 8 0
BBX 6 16 1 -4
BITMAP
C0
20
20
20
20
20
20
10
0C
30
20
20
20
20
20
C0
ENDCHAR
STARTCHAR U_007E
ENCODING 126
SWIDTH 625 0
DWIDTH 10 0
BBX 7 2 1 9
BITMAP
72
8C
ENDCHAR
STARTCHAR U_5E74
ENCODING 24180
SWIDTH 1000 0
DWIDTH 16 0
BBX 16 16 0 -2
BITMAP
1000
1000
1FFC
2080
2080
4080
1FF8
1080
1080
1080
FFFE
0080
0080
0080
0080
0080
ENDCHAR
STARTCHAR U_6708
ENCODING 26376
SWIDTH 1000 0
DWIDTH 16 0
BBX 16 16 0 -2
BITMAP
07FC
0404
0404
0404
0404
07FC
0404
0404
0404
07FC
0404
0404
0804
0804
1014
2008
ENDCHAR
STARTCHAR U_53F7
ENCODING 21495
SWIDTH 1000 0
DWIDTH 16 0
BBX 16 16 0 -2
BITMAP
0000
1FF0
1010
1010
1010
1FF0
0000
FFFE
0800
1000
1FF0
0010
0010
0010
00A0
0040
ENDCHAR
ENDFONT
